<svg viewBox="0 0 24 24" fill="none" xmlns="http://www.w3.org/2000/svg">
<path id="Vector" d="M17 3.00018C17.5304 3.00018 18.0391 3.2109 18.4142 3.58597C18.7893 3.96104 19 4.46975 19 5.00018V20.0002C18.9999 20.1753 18.9539 20.3473 18.8665 20.4991C18.7791 20.6508 18.6533 20.7769 18.5019 20.8648C18.3504 20.9527 18.1785 20.9993 18.0034 20.9999C17.8283 21.0004 17.6561 20.955 17.504 20.8682L12.992 18.2902C12.6899 18.1176 12.3479 18.0268 12 18.0268C11.6521 18.0268 11.3101 18.1176 11.008 18.2902L6.496 20.8682C6.34394 20.955 6.17174 21.0004 5.99662 20.9999C5.8215 20.9993 5.64961 20.9527 5.49814 20.8648C5.34667 20.7769 5.22094 20.6508 5.13352 20.4991C5.0461 20.3473 5.00006 20.1753 5 20.0002V5.00018C5 4.46975 5.21071 3.96104 5.58579 3.58597C5.96086 3.2109 6.46957 3.00018 7 3.00018H17Z" stroke="currentColor" stroke-width="1.2" stroke-linecap="round" stroke-linejoin="round"/>
</svg>
