<svg viewBox="0 0 26 26" fill="none" xmlns="http://www.w3.org/2000/svg">
<path d="M12.7998 14.134C13.5366 14.134 14.1338 13.5367 14.1338 12.8C14.1338 12.0632 13.5366 11.466 12.7998 11.466C12.0631 11.466 11.4658 12.0632 11.4658 12.8C11.4658 13.5367 12.0631 14.134 12.7998 14.134Z" fill="currentColor"/>
<path d="M12.7998 14.134C13.5366 14.134 14.1338 13.5367 14.1338 12.8C14.1338 12.0632 13.5366 11.466 12.7998 11.466C12.0631 11.466 11.4658 12.0632 11.4658 12.8C11.4658 13.5367 12.0631 14.134 12.7998 14.134Z" stroke="currentColor" stroke-width="1.6" stroke-linecap="round" stroke-linejoin="round"/>
<path d="M23.7386 23.7388C26.46 21.0308 23.7653 13.9205 17.7356 7.86418C11.6792 1.83449 4.56901 -0.860188 1.86099 1.86117C-0.860371 4.5692 1.83431 11.6794 7.864 17.7358C13.9204 23.7655 21.0306 26.4602 23.7386 23.7388Z" stroke="currentColor" stroke-width="1.6" stroke-linecap="round" stroke-linejoin="round"/>
<path d="M17.7356 17.7358C23.7653 11.6794 26.46 4.5692 23.7386 1.86117C21.0306 -0.860188 13.9204 1.83449 7.864 7.86418C1.83431 13.9205 -0.860371 21.0308 1.86099 23.7388C4.56901 26.4602 11.6792 23.7655 17.7356 17.7358Z" stroke="currentColor" stroke-width="1.6" stroke-linecap="round" stroke-linejoin="round"/>
</svg>
