<svg viewBox="0 0 17 17" fill="none" xmlns="http://www.w3.org/2000/svg">
<path id="Vector" d="M7.2198 9.14761L2.16908 10.3332C1.97304 10.38 1.76812 10.34 1.59866 10.2219C1.4292 10.1037 1.30882 9.91684 1.26355 9.70173L0.824676 7.7677C0.773078 7.53468 0.802379 7.28885 0.906839 7.07837C1.0113 6.86788 1.18339 6.70791 1.38941 6.62977L12.4258 2.63579M10.0762 8.47654L13.6166 7.64536M12.0703 16.8L9.53268 11.2139M4.02674 5.67536L4.93717 9.68373M5.53214 16.8L8.06976 11.2139M12.4667 3.25288C12.3616 2.79005 12.4279 2.30024 12.6509 1.89116C12.8739 1.48209 13.2353 1.18725 13.6558 1.07148L14.5466 0.826799C14.7568 0.769101 14.9791 0.805568 15.1648 0.928187C15.3506 1.05081 15.4845 1.24955 15.5371 1.48077L16.7753 6.93202C16.828 7.16344 16.795 7.40841 16.6835 7.61303C16.5721 7.81766 16.3914 7.96519 16.1812 8.02317L15.2903 8.26785C14.8698 8.38348 14.4248 8.31056 14.0532 8.06512C13.6815 7.81967 13.4136 7.42181 13.3085 6.95901L12.4667 3.25288ZM10.4358 9.60368C10.4358 10.5973 9.70395 11.4028 8.80122 11.4028C7.89849 11.4028 7.16668 10.5973 7.16668 9.60368C7.16668 8.61006 7.89849 7.80458 8.80122 7.80458C9.70395 7.80458 10.4358 8.61006 10.4358 9.60368Z" stroke="currentColor" stroke-width="1.6" stroke-linecap="round" stroke-linejoin="round"/>
</svg>
