<svg viewBox="0 0 20 19" fill="none" xmlns="http://www.w3.org/2000/svg">
<path id="Vector" d="M8.40058 15.4207C8.40051 15.5674 8.44188 15.7113 8.52003 15.8361C8.59818 15.9609 8.71004 16.0617 8.84304 16.1273L10.4433 16.9167C10.5653 16.9769 10.7008 17.0053 10.8371 16.9992C10.9734 16.9931 11.1058 16.9527 11.2218 16.8819C11.3378 16.8112 11.4335 16.7123 11.4999 16.5947C11.5663 16.4771 11.6011 16.3448 11.601 16.2102V10.684C11.6012 10.2927 11.7486 9.91546 12.0147 9.62534L17.7939 3.31839C17.8974 3.20515 17.9656 3.06472 17.99 2.9141C18.0144 2.76347 17.994 2.60909 17.9314 2.46963C17.8688 2.33016 17.7665 2.21159 17.637 2.12825C17.5076 2.0449 17.3564 2.00036 17.2018 2H2.79982C2.64508 2.00006 2.49369 2.04438 2.36396 2.1276C2.23424 2.21083 2.13175 2.32938 2.06892 2.46891C2.0061 2.60843 1.98562 2.76293 2.00997 2.91371C2.03433 3.06448 2.10247 3.20505 2.20614 3.31839L7.98693 9.62534C8.25299 9.91546 8.4004 10.2927 8.40058 10.684V15.4207Z" stroke="currentColor" stroke-width="1.6" stroke-linecap="round" stroke-linejoin="round"/>
</svg>
