<svg viewBox="0 0 24 24" fill="none" xmlns="http://www.w3.org/2000/svg">
<path id="Vector" d="M12.7806 2.49976H3.24964C3.05625 2.49983 2.86702 2.55597 2.70489 2.66139C2.54276 2.76681 2.41467 2.91699 2.33614 3.09372C2.25762 3.27045 2.23203 3.46616 2.26246 3.65715C2.2929 3.84813 2.37807 4.02619 2.50764 4.16976L9.73264 12.1588C10.0652 12.5263 10.2494 13.0041 10.2496 13.4998V19.4998C10.2496 19.6856 10.3012 19.8678 10.3989 20.0259C10.4966 20.1839 10.6364 20.3117 10.8026 20.3948L12.8026 21.3948C12.9551 21.471 13.1246 21.5069 13.2949 21.4992C13.4652 21.4915 13.6307 21.4404 13.7757 21.3507C13.9207 21.261 14.0403 21.1358 14.1233 20.9868C14.2062 20.8379 14.2497 20.6702 14.2496 20.4998V13.4998C14.2499 13.0041 14.4341 12.5263 14.7666 12.1588L15.1936 11.6858M16.7496 2.99976L21.7496 7.99976M21.7496 2.99976L16.7496 7.99976" stroke="currentColor" stroke-width="2" stroke-linecap="round" stroke-linejoin="round"/>
</svg>
