<svg viewBox="0 0 34 34" fill="none" xmlns="http://www.w3.org/2000/svg">
<path id="Vector" d="M26.2798 29.6896C25.9207 27.4333 24.7687 25.3791 23.0308 23.896C21.2929 22.4129 19.083 21.5983 16.7983 21.5985C14.5136 21.5987 12.3039 22.4137 10.5663 23.897C8.8286 25.3804 7.67693 27.4348 7.3182 29.6912M23.1998 15.2C23.1998 18.7346 20.3344 21.6 16.7998 21.6C13.2652 21.6 10.3998 18.7346 10.3998 15.2C10.3998 11.6654 13.2652 8.79999 16.7998 8.79999C20.3344 8.79999 23.1998 11.6654 23.1998 15.2ZM32.7998 16.8C32.7998 25.6365 25.6364 32.8 16.7998 32.8C7.96325 32.8 0.799805 25.6365 0.799805 16.8C0.799805 7.96343 7.96325 0.799988 16.7998 0.799988C25.6364 0.799988 32.7998 7.96343 32.7998 16.8Z" stroke="currentColor" stroke-width="1.6" stroke-linecap="round" stroke-linejoin="round"/>
</svg>
