<svg viewBox="0 0 17 17" fill="none" xmlns="http://www.w3.org/2000/svg">
<path id="Vector" d="M9.91974 0.800107H3.99978C3.57544 0.800107 3.16847 0.968676 2.86842 1.26873C2.56836 1.56879 2.39979 1.97575 2.39979 2.40009V15.2C2.39979 15.6243 2.56836 16.0313 2.86842 16.3314C3.16847 16.6314 3.57544 16.8 3.99978 16.8H13.5997C14.0241 16.8 14.431 16.6314 14.7311 16.3314C15.0311 16.0313 15.1997 15.6243 15.1997 15.2V9.28004M0.799805 4.00008H3.99978M0.799805 7.20006H3.99978M0.799805 10.4H3.99978M0.799805 13.6H3.99978M16.3021 3.70089C16.6208 3.3822 16.7998 2.94998 16.7998 2.49929C16.7998 2.04861 16.6208 1.61638 16.3021 1.2977C15.9834 0.979021 15.5512 0.799988 15.1005 0.799988C14.6498 0.799988 14.2176 0.979021 13.8989 1.2977L9.89094 5.30727C9.70074 5.49737 9.56152 5.73234 9.48614 5.99047L8.81655 8.28645C8.79647 8.35529 8.79526 8.42826 8.81306 8.49772C8.83086 8.56718 8.867 8.63059 8.9177 8.68129C8.96841 8.73199 9.03181 8.76814 9.10127 8.78593C9.17073 8.80373 9.2437 8.80252 9.31254 8.78245L11.6085 8.11285C11.8667 8.03748 12.1016 7.89826 12.2917 7.70806L16.3021 3.70089Z" stroke="currentColor" stroke-width="1.6" stroke-linecap="round" stroke-linejoin="round"/>
</svg>
